<svg width="40" height="40" viewBox="0 0 40 40" fill="none" xmlns="http://www.w3.org/2000/svg">
<circle cx="20" cy="20" r="20" fill="white"/>
<path d="M19.4879 6.30957C12.0013 6.30654 5.9375 12.3673 5.9375 19.8479C5.9375 25.7633 9.73076 30.7917 15.0135 32.6384C15.7249 32.817 15.6159 32.3114 15.6159 31.9663V29.6201C11.5078 30.1015 11.3413 27.3829 11.0658 26.9288C10.5088 25.9782 9.19189 25.736 9.58545 25.2819C10.5209 24.8006 11.4745 25.403 12.5795 27.0348C13.3787 28.2185 14.9378 28.0187 15.7279 27.8219C15.9005 27.1105 16.2698 26.4747 16.7784 25.9812C12.522 25.2184 10.7479 22.6209 10.7479 19.533C10.7479 18.0345 11.2414 16.657 12.2102 15.546C11.5926 13.7145 12.2677 12.1463 12.3585 11.9132C14.1174 11.7558 15.9459 13.1726 16.0882 13.2846C17.0872 13.0151 18.2285 12.8729 19.5061 12.8729C20.7896 12.8729 21.934 13.0212 22.9421 13.2937C23.2842 13.0333 24.9795 11.8163 26.6143 11.9646C26.702 12.1978 27.362 13.7296 26.7808 15.5369C27.7616 16.651 28.2611 18.0405 28.2611 19.5421C28.2611 22.636 26.475 25.2365 22.2064 25.9873C22.5721 26.3469 22.8624 26.7757 23.0604 27.2487C23.2584 27.7217 23.3602 28.2294 23.3599 28.7422V32.1479C23.3841 32.4204 23.3599 32.6898 23.814 32.6898C29.1754 30.8825 33.0353 25.8178 33.0353 19.8509C33.0353 12.3673 26.9685 6.30957 19.4879 6.30957Z" fill="black"/>
</svg>
