<svg width="40" height="40" viewBox="0 0 40 40" fill="none" xmlns="http://www.w3.org/2000/svg">
<circle cx="20" cy="20" r="20" fill="white"/>
<path d="M9 16.124L19.654 21.665C19.7609 21.7206 19.8795 21.7496 20 21.7496C20.1205 21.7496 20.2391 21.7206 20.346 21.665L31 16.125V25.75C31.0001 26.5801 30.6824 27.3788 30.1123 27.9822C29.5422 28.5856 28.7628 28.948 27.934 28.995L27.75 29H12.25C11.4199 29.0001 10.6212 28.6824 10.0178 28.1123C9.41437 27.5422 9.052 26.7628 9.005 25.934L9 25.75V16.124ZM12.25 11H27.75C28.5801 10.9999 29.3788 11.3176 29.9822 11.8877C30.5856 12.4578 30.948 13.2372 30.995 14.066L31 14.25V14.434L20 20.154L9 14.434V14.25C8.99995 13.4199 9.31755 12.6212 9.88767 12.0178C10.4578 11.4144 11.2372 11.052 12.066 11.005L12.25 11Z" fill="black"/>
</svg>
